# Blender v2.74 (sub 0) OBJ File: ''
# www.blender.org
mtllib IMDrawCapsuleBody.mtl
g IMDrawCapsuleBody
o IMDrawCapsuleBody.001
v 0.000000 -0.500000 1.000000
v 0.258819 -0.500000 0.965926
v 0.258819 0.500000 0.965926
v 0.500000 -0.500000 0.866025
v 0.500000 0.500000 0.866025
v 0.707107 -0.500000 0.707107
v 0.707107 0.500000 0.707107
v 0.866026 -0.500000 0.500000
v 0.866026 0.500000 0.500000
v 0.965926 -0.500000 0.258819
v 1.000000 -0.500000 0.000000
v 1.000000 0.500000 0.000000
v 0.965926 -0.500000 -0.258819
v 0.965926 0.500000 -0.258819
v 0.866026 -0.500000 -0.500000
v 0.707107 -0.500000 -0.707107
v 0.707107 0.500000 -0.707107
v 0.500000 -0.500000 -0.866025
v 0.500000 0.500000 -0.866025
v 0.258819 -0.500000 -0.965926
v 0.258819 0.500000 -0.965926
v 0.000000 -0.500000 -1.000000
v 0.000000 0.500000 -1.000000
v -0.258819 -0.500000 -0.965926
v -0.258819 0.500000 -0.965926
v -0.500000 -0.500000 -0.866026
v -0.500000 0.500000 -0.866026
v -0.707106 -0.500000 -0.707107
v -0.707106 0.500000 -0.707107
v -0.866025 -0.500000 -0.500000
v -0.866025 0.500000 -0.500000
v -0.965926 -0.500000 -0.258819
v -0.965926 0.500000 -0.258819
v -1.000000 -0.500000 0.000000
v -1.000000 0.500000 0.000000
v -0.965926 -0.500000 0.258819
v -0.965926 0.500000 0.258819
v -0.866026 -0.500000 0.499999
v -0.866026 0.500000 0.499999
v -0.707107 -0.500000 0.707106
v -0.707107 0.500000 0.707106
v -0.500001 -0.500000 0.866025
v -0.500001 0.500000 0.866025
v -0.258820 -0.500000 0.965926
v 0.000000 0.500000 1.000000
v -0.258820 0.500000 0.965926
v 0.965926 0.500000 0.258819
v 0.866026 0.500000 -0.500000
vn 0.130500 0.000000 0.991400
vn 0.382700 0.000000 0.923900
vn 0.608800 0.000000 0.793400
vn 0.793400 0.000000 0.608800
vn 0.923900 0.000000 0.382700
vn 0.991400 0.000000 0.130500
vn 0.991400 0.000000 -0.130500
vn 0.923900 0.000000 -0.382700
vn 0.793400 0.000000 -0.608800
vn 0.608800 0.000000 -0.793400
vn 0.382700 0.000000 -0.923900
vn 0.130500 0.000000 -0.991400
vn -0.130500 0.000000 -0.991400
vn -0.382700 0.000000 -0.923900
vn -0.608800 0.000000 -0.793400
vn -0.793400 0.000000 -0.608800
vn -0.923900 0.000000 -0.382700
vn -0.991400 0.000000 -0.130500
vn -0.991400 0.000000 0.130500
vn -0.923900 0.000000 0.382700
vn -0.793400 0.000000 0.608800
vn -0.608800 0.000000 0.793400
vn -0.130500 0.000000 0.991400
vn -0.382700 0.000000 0.923900
usemtl None.001
s 1
f 1//1 2//1 3//1
f 2//2 4//2 5//2
f 4//3 6//3 7//3
f 7//4 6//4 8//4
f 9//5 8//5 10//5
f 10//6 11//6 12//6
f 11//7 13//7 14//7
f 14//8 13//8 15//8
f 15//9 16//9 17//9
f 16//10 18//10 19//10
f 18//11 20//11 21//11
f 20//12 22//12 23//12
f 22//13 24//13 25//13
f 24//14 26//14 27//14
f 26//15 28//15 29//15
f 28//16 30//16 31//16
f 30//17 32//17 33//17
f 32//18 34//18 35//18
f 34//19 36//19 37//19
f 36//20 38//20 39//20
f 38//21 40//21 41//21
f 40//22 42//22 43//22
f 44//23 1//23 45//23
f 42//24 44//24 46//24
f 45//1 1//1 3//1
f 3//2 2//2 5//2
f 5//3 4//3 7//3
f 9//4 7//4 8//4
f 47//5 9//5 10//5
f 47//6 10//6 12//6
f 12//7 11//7 14//7
f 48//8 14//8 15//8
f 48//9 15//9 17//9
f 17//10 16//10 19//10
f 19//11 18//11 21//11
f 21//12 20//12 23//12
f 23//13 22//13 25//13
f 25//14 24//14 27//14
f 27//15 26//15 29//15
f 29//16 28//16 31//16
f 31//17 30//17 33//17
f 33//18 32//18 35//18
f 35//19 34//19 37//19
f 37//20 36//20 39//20
f 39//21 38//21 41//21
f 41//22 40//22 43//22
f 46//23 44//23 45//23
f 43//24 42//24 46//24
