# Blender v2.74 (sub 0) OBJ File: ''
# www.blender.org
mtllib IMDrawCylinder.mtl
g IMDrawCylinder
o IMDrawCylinder.001
v 0.000000 -0.500000 1.000000
v 0.258819 -0.500000 0.965926
v 0.258819 0.500000 0.965926
v 0.500000 -0.500000 0.866026
v 0.500000 0.500000 0.866025
v 0.707107 -0.500000 0.707107
v 0.707107 0.500000 0.707107
v 0.866026 -0.500000 0.500000
v 0.866026 0.500000 0.500000
v 0.965926 -0.500000 0.258819
v 1.000000 -0.500000 0.000000
v 1.000000 0.500000 0.000000
v 0.965926 -0.500000 -0.258819
v 0.965926 0.500000 -0.258819
v 0.866026 -0.500000 -0.500000
v 0.866026 0.500000 -0.500000
v 0.707107 -0.500000 -0.707107
v 0.707107 0.500000 -0.707107
v 0.500000 -0.500000 -0.866025
v 0.258819 -0.500000 -0.965926
v 0.258819 0.500000 -0.965926
v 0.000000 -0.500000 -1.000000
v 0.000000 0.500000 -1.000000
v -0.258819 -0.500000 -0.965926
v -0.258819 0.500000 -0.965926
v -0.500000 -0.500000 -0.866026
v -0.500000 0.500000 -0.866026
v -0.707106 -0.500000 -0.707107
v -0.707106 0.500000 -0.707107
v -0.866025 -0.500000 -0.500000
v -0.866025 0.500000 -0.500000
v -0.965926 -0.500000 -0.258819
v -0.965926 0.500000 -0.258819
v -1.000000 -0.500000 0.000000
v -1.000000 0.500000 -0.000001
v -0.965926 -0.500000 0.258819
v -0.965926 0.500000 0.258819
v -0.866026 -0.500000 0.499999
v -0.866026 0.500000 0.499999
v -0.707107 -0.500000 0.707106
v -0.707107 0.500000 0.707106
v -0.500001 -0.500000 0.866025
v -0.500001 0.500000 0.866025
v -0.258820 -0.500000 0.965926
v 0.000000 0.500000 1.000000
v -0.258820 0.500000 0.965926
v 0.965926 0.500000 0.258819
v 0.500000 0.500000 -0.866025
vn 0.130500 0.000000 0.991400
vn 0.382700 0.000000 0.923900
vn 0.608800 0.000000 0.793400
vn 0.793400 0.000000 0.608800
vn 0.923900 0.000000 0.382700
vn 0.991400 0.000000 0.130500
vn 0.991400 0.000000 -0.130500
vn 0.923900 0.000000 -0.382700
vn 0.793400 0.000000 -0.608800
vn 0.608800 0.000000 -0.793400
vn 0.382700 0.000000 -0.923900
vn 0.130500 0.000000 -0.991400
vn -0.130500 0.000000 -0.991400
vn -0.382700 0.000000 -0.923900
vn -0.608800 0.000000 -0.793400
vn -0.793400 0.000000 -0.608800
vn -0.923900 0.000000 -0.382700
vn -0.991400 -0.000000 -0.130500
vn -0.991400 0.000000 0.130500
vn -0.923900 0.000000 0.382700
vn -0.793400 0.000000 0.608800
vn -0.608800 0.000000 0.793400
vn 0.000000 -1.000000 0.000000
vn -0.130500 0.000000 0.991400
vn -0.382700 0.000000 0.923900
vn 0.000000 1.000000 0.000000
usemtl None.003
s 1
f 1//1 2//1 3//1
f 2//2 4//2 5//2
f 5//3 4//3 6//3
f 7//4 6//4 8//4
f 9//5 8//5 10//5
f 10//6 11//6 12//6
f 11//7 13//7 14//7
f 14//8 13//8 15//8
f 16//9 15//9 17//9
f 18//10 17//10 19//10
f 19//11 20//11 21//11
f 20//12 22//12 23//12
f 22//13 24//13 25//13
f 24//14 26//14 27//14
f 26//15 28//15 29//15
f 28//16 30//16 31//16
f 30//17 32//17 33//17
f 32//18 34//18 35//18
f 34//19 36//19 37//19
f 36//20 38//20 39//20
f 38//21 40//21 41//21
f 40//22 42//22 43//22
f 2//23 32//23 24//23
f 44//24 1//24 45//24
f 42//25 44//25 46//25
f 45//26 9//26 31//26
f 45//1 1//1 3//1
f 3//2 2//2 5//2
f 7//3 5//3 6//3
f 9//4 7//4 8//4
f 47//5 9//5 10//5
f 47//6 10//6 12//6
f 12//7 11//7 14//7
f 16//8 14//8 15//8
f 18//9 16//9 17//9
f 48//10 18//10 19//10
f 48//11 19//11 21//11
f 21//12 20//12 23//12
f 23//13 22//13 25//13
f 25//14 24//14 27//14
f 27//15 26//15 29//15
f 29//16 28//16 31//16
f 31//17 30//17 33//17
f 33//18 32//18 35//18
f 35//19 34//19 37//19
f 37//20 36//20 39//20
f 39//21 38//21 41//21
f 41//22 40//22 43//22
f 6//23 4//23 2//23
f 10//23 8//23 6//23
f 13//23 11//23 10//23
f 17//23 15//23 13//23
f 20//23 19//23 17//23
f 24//23 22//23 20//23
f 28//23 26//23 24//23
f 24//23 30//23 28//23
f 36//23 34//23 32//23
f 32//23 38//23 36//23
f 44//23 42//23 40//23
f 40//23 1//23 44//23
f 10//23 6//23 2//23
f 17//23 13//23 10//23
f 24//23 20//23 17//23
f 32//23 30//23 24//23
f 40//23 38//23 32//23
f 2//23 1//23 40//23
f 17//23 10//23 2//23
f 2//23 24//23 17//23
f 2//23 40//23 32//23
f 46//24 44//24 45//24
f 43//25 42//25 46//25
f 39//26 46//26 45//26
f 39//26 41//26 43//26
f 35//26 37//26 39//26
f 31//26 33//26 35//26
f 27//26 29//26 31//26
f 23//26 25//26 27//26
f 48//26 21//26 23//26
f 23//26 18//26 48//26
f 9//26 14//26 16//26
f 9//26 47//26 12//26
f 45//26 7//26 9//26
f 45//26 3//26 5//26
f 39//26 43//26 46//26
f 45//26 35//26 39//26
f 23//26 27//26 31//26
f 16//26 18//26 23//26
f 9//26 12//26 14//26
f 45//26 5//26 7//26
f 31//26 35//26 45//26
f 16//26 23//26 31//26
f 31//26 9//26 16//26
