# Blender v2.74 (sub 0) OBJ File: ''
# www.blender.org
mtllib IMDrawPyramid.mtl
g IMDrawPyramid
o IMDrawPyramid.001
v -0.500000 0.000000 -0.500000
v 0.500000 0.000000 -0.500000
v 0.500000 0.000000 0.500000
v 0.000000 1.000000 0.000000
v -0.500000 0.000000 0.500000
vn 0.000000 0.447200 0.894400
vn 0.000000 0.447200 -0.894400
vn -0.894400 0.447200 0.000000
vn 0.894400 0.447200 0.000000
vn 0.000000 -1.000000 0.000000
usemtl None
s off
f 3//1 4//1 5//1
f 1//2 4//2 2//2
f 5//3 4//3 1//3
f 2//4 4//4 3//4
f 1//5 2//5 3//5 5//5
