# Blender v2.74 (sub 0) OBJ File: ''
# www.blender.org
mtllib IMDrawRhombus.mtl
g IMDrawRhombus
o IMDrawRhombus.001
v 0.500000 0.000000 -0.500000
v 0.500000 0.000000 0.500000
v 0.000000 0.500000 0.000000
v -0.500000 0.000000 0.500000
v -0.500000 0.000000 -0.500000
v 0.000000 -0.500000 0.000000
vn 0.000000 0.707100 0.707100
vn 0.707100 0.707100 0.000000
vn -0.000000 0.707100 -0.707100
vn -0.707100 0.707100 0.000000
vn 0.000000 -0.707100 0.707100
vn -0.000000 -0.707100 -0.707100
vn -0.707100 -0.707100 0.000000
vn 0.707100 -0.707100 0.000000
usemtl None
s off
f 2//1 3//1 4//1
f 1//2 3//2 2//2
f 5//3 3//3 1//3
f 4//4 3//4 5//4
f 2//5 4//5 6//5
f 5//6 1//6 6//6
f 4//7 5//7 6//7
f 1//8 2//8 6//8
